<svg xmlns="http://www.w3.org/2000/svg" xmlns:xlink="http://www.w3.org/1999/xlink" width="1080" zoomAndPan="magnify" viewBox="0 0 810 809.999993" height="1080" preserveAspectRatio="xMidYMid meet" version="1.0"><defs><clipPath id="4fc1bbd0c2"><path d="M 3.75 3.75 L 806.25 3.75 L 806.25 806.25 L 3.75 806.25 Z M 3.75 3.75 " clip-rule="nonzero"/></clipPath><clipPath id="a0eaa416b7"><path d="M 405 3.75 C 183.394531 3.75 3.75 183.394531 3.75 405 C 3.75 626.605469 183.394531 806.25 405 806.25 C 626.605469 806.25 806.25 626.605469 806.25 405 C 806.25 183.394531 626.605469 3.75 405 3.75 Z M 405 3.75 " clip-rule="nonzero"/></clipPath><clipPath id="15895b54de"><path d="M 0.75 0.75 L 803.25 0.75 L 803.25 803.25 L 0.75 803.25 Z M 0.75 0.75 " clip-rule="nonzero"/></clipPath><clipPath id="8f7bf2a701"><path d="M 402 0.75 C 180.394531 0.75 0.75 180.394531 0.75 402 C 0.75 623.605469 180.394531 803.25 402 803.25 C 623.605469 803.25 803.25 623.605469 803.25 402 C 803.25 180.394531 623.605469 0.75 402 0.75 Z M 402 0.75 " clip-rule="nonzero"/></clipPath><clipPath id="b28b422691"><rect x="0" width="804" y="0" height="804"/></clipPath><clipPath id="e906b82837"><path d="M 348 60.613281 L 491 60.613281 L 491 109 L 348 109 Z M 348 60.613281 " clip-rule="nonzero"/></clipPath><clipPath id="6ca78abcde"><path d="M 348 175 L 707 175 L 707 749.113281 L 348 749.113281 Z M 348 175 " clip-rule="nonzero"/></clipPath><clipPath id="a5684207be"><path d="M 67.5 404 L 229 404 L 229 422 L 67.5 422 Z M 67.5 404 " clip-rule="nonzero"/></clipPath></defs><g clip-path="url(#4fc1bbd0c2)"><g clip-path="url(#a0eaa416b7)"><g transform="matrix(1, 0, 0, 1, 3, 3)"><g clip-path="url(#b28b422691)"><g clip-path="url(#15895b54de)"><g clip-path="url(#8f7bf2a701)"><path fill="#fdf103" d="M 0.75 0.75 L 803.25 0.75 L 803.25 803.25 L 0.75 803.25 Z M 0.75 0.75 " fill-opacity="1" fill-rule="nonzero"/></g></g></g></g></g></g><path fill="#ff1304" d="M 419.941406 698.039062 C 391.730469 698.039062 364.140625 693.117188 337.925781 683.421875 C 333.324219 681.71875 330.96875 676.605469 332.671875 672.003906 C 334.375 667.402344 339.488281 665.058594 344.089844 666.75 C 368.324219 675.714844 393.847656 680.265625 419.941406 680.265625 C 540.507812 680.265625 638.597656 582.183594 638.597656 461.625 C 638.597656 341.058594 540.507812 242.972656 419.941406 242.972656 C 384.90625 242.972656 351.441406 251.007812 320.476562 266.859375 C 316.117188 269.09375 310.757812 267.367188 308.519531 263 C 306.285156 258.628906 308.011719 253.277344 312.382812 251.039062 C 345.878906 233.894531 382.066406 225.199219 419.941406 225.199219 C 550.3125 225.199219 656.375 331.257812 656.375 461.625 C 656.367188 591.980469 550.304688 698.039062 419.941406 698.039062 Z M 419.941406 698.039062 " fill-opacity="1" fill-rule="nonzero"/><path fill="#ff1304" d="M 417.820312 307.289062 C 412.914062 307.289062 408.933594 303.3125 408.933594 298.40625 L 408.933594 234.929688 C 408.933594 230.019531 412.914062 226.042969 417.820312 226.042969 C 422.730469 226.042969 426.707031 230.019531 426.707031 234.929688 L 426.707031 298.40625 C 426.707031 303.308594 422.730469 307.289062 417.820312 307.289062 Z M 417.820312 307.289062 " fill-opacity="1" fill-rule="nonzero"/><path fill="#ff1304" d="M 417.820312 698.039062 C 412.914062 698.039062 408.933594 694.058594 408.933594 689.152344 L 408.933594 625.675781 C 408.933594 620.765625 412.914062 616.789062 417.820312 616.789062 C 422.730469 616.789062 426.707031 620.765625 426.707031 625.675781 L 426.707031 689.152344 C 426.707031 694.058594 422.730469 698.039062 417.820312 698.039062 Z M 417.820312 698.039062 " fill-opacity="1" fill-rule="nonzero"/><path fill="#ff1304" d="M 575.273438 631.226562 C 572.957031 631.226562 570.636719 630.324219 568.894531 628.523438 L 524.703125 582.964844 C 521.289062 579.441406 521.375 573.816406 524.898438 570.398438 C 528.421875 566.984375 534.054688 567.066406 537.464844 570.59375 L 581.65625 616.15625 C 585.070312 619.679688 584.984375 625.300781 581.460938 628.722656 C 579.734375 630.394531 577.503906 631.226562 575.273438 631.226562 Z M 575.273438 631.226562 " fill-opacity="1" fill-rule="nonzero"/><path fill="#ff1304" d="M 539.652344 360.167969 C 537.335938 360.167969 535.011719 359.265625 533.269531 357.464844 C 529.855469 353.945312 529.941406 348.316406 533.464844 344.902344 L 579.027344 300.714844 C 582.546875 297.300781 588.175781 297.378906 591.59375 300.90625 C 595.007812 304.429688 594.925781 310.054688 591.398438 313.472656 L 545.835938 357.65625 C 544.113281 359.335938 541.878906 360.167969 539.652344 360.167969 Z M 539.652344 360.167969 " fill-opacity="1" fill-rule="nonzero"/><path fill="#ff1304" d="M 644.117188 471.34375 L 575.425781 471.34375 C 570.519531 471.34375 566.542969 467.367188 566.542969 462.460938 C 566.542969 457.550781 570.519531 453.574219 575.425781 453.574219 L 644.117188 453.574219 C 649.027344 453.574219 653.003906 457.550781 653.003906 462.460938 C 653.003906 467.367188 649.027344 471.34375 644.117188 471.34375 Z M 644.117188 471.34375 " fill-opacity="1" fill-rule="nonzero"/><path fill="#ff1304" d="M 404.375 99.652344 L 435.527344 99.652344 L 435.527344 183.890625 L 404.375 183.890625 Z M 404.375 99.652344 " fill-opacity="1" fill-rule="nonzero"/><path fill="#ff1304" d="M 435.527344 192.777344 L 404.371094 192.777344 C 399.460938 192.777344 395.484375 188.796875 395.484375 183.890625 L 395.484375 99.652344 C 395.484375 94.742188 399.460938 90.765625 404.371094 90.765625 L 435.527344 90.765625 C 440.433594 90.765625 444.414062 94.742188 444.414062 99.652344 L 444.414062 183.890625 C 444.414062 188.796875 440.433594 192.777344 435.527344 192.777344 Z M 413.261719 175.003906 L 426.644531 175.003906 L 426.644531 108.539062 L 413.261719 108.539062 Z M 413.261719 175.003906 " fill-opacity="1" fill-rule="nonzero"/><path fill="#ff1304" d="M 482.101562 84.546875 C 482.101562 92.890625 470.136719 99.648438 455.363281 99.648438 L 384.527344 99.648438 C 369.753906 99.648438 357.800781 92.886719 357.800781 84.546875 C 357.800781 76.210938 369.753906 69.453125 384.527344 69.453125 L 455.363281 69.453125 C 470.136719 69.453125 482.101562 76.210938 482.101562 84.546875 Z M 482.101562 84.546875 " fill-opacity="1" fill-rule="nonzero"/><g clip-path="url(#e906b82837)"><path fill="#ff1304" d="M 455.363281 108.539062 L 384.527344 108.539062 C 364.222656 108.539062 348.910156 98.226562 348.910156 84.546875 C 348.910156 70.875 364.222656 60.566406 384.527344 60.566406 L 455.363281 60.566406 C 475.671875 60.566406 490.984375 70.875 490.984375 84.546875 C 490.988281 98.222656 475.671875 108.539062 455.363281 108.539062 Z M 384.53125 78.339844 C 373.085938 78.339844 366.96875 83.121094 366.683594 84.578125 C 366.964844 85.976562 373.074219 90.765625 384.53125 90.765625 L 455.367188 90.765625 C 466.820312 90.765625 472.933594 85.976562 473.21875 84.523438 C 472.929688 83.125 466.804688 78.339844 455.367188 78.339844 Z M 384.53125 78.339844 " fill-opacity="1" fill-rule="nonzero"/></g><path fill="#ff1304" d="M 660.574219 188.242188 L 682.925781 209.957031 L 624.234375 270.378906 L 601.882812 248.664062 Z M 660.574219 188.242188 " fill-opacity="1" fill-rule="nonzero"/><path fill="#ff1304" d="M 624.257812 279.226562 C 622.023438 279.226562 619.792969 278.394531 618.0625 276.714844 L 595.710938 255 C 594.019531 253.359375 593.050781 251.113281 593.015625 248.753906 C 592.980469 246.398438 593.886719 244.125 595.527344 242.433594 L 654.226562 182.015625 C 657.652344 178.496094 663.273438 178.417969 666.792969 181.835938 L 689.144531 203.542969 C 690.835938 205.183594 691.800781 207.429688 691.835938 209.789062 C 691.875 212.144531 690.96875 214.414062 689.324219 216.105469 L 630.628906 276.53125 C 628.886719 278.324219 626.570312 279.226562 624.257812 279.226562 Z M 614.464844 248.441406 L 624.070312 257.773438 L 670.382812 210.097656 L 660.78125 200.769531 Z M 614.464844 248.441406 " fill-opacity="1" fill-rule="nonzero"/><path fill="#ff1304" d="M 726.886719 231.539062 C 721.074219 237.523438 707.78125 234.035156 697.179688 223.742188 L 646.375 174.382812 C 635.777344 164.085938 631.90625 150.90625 637.71875 144.929688 C 643.53125 138.945312 656.820312 142.433594 667.417969 152.726562 L 718.222656 202.082031 C 728.820312 212.375 732.691406 225.558594 726.886719 231.539062 Z M 726.886719 231.539062 " fill-opacity="1" fill-rule="nonzero"/><path fill="#ff1304" d="M 719.011719 243.347656 C 709.996094 243.347656 699.523438 238.402344 690.988281 230.117188 L 640.175781 180.753906 C 633.96875 174.726562 629.421875 167.546875 627.363281 160.535156 C 624.824219 151.890625 626.273438 143.945312 631.34375 138.730469 C 634.914062 135.058594 639.839844 133.113281 645.582031 133.113281 C 654.59375 133.113281 665.066406 138.0625 673.601562 146.347656 L 724.410156 195.703125 C 738.976562 209.851562 742.78125 227.917969 733.261719 237.730469 C 729.6875 241.40625 724.757812 243.347656 719.011719 243.347656 Z M 645.582031 150.886719 C 644.636719 150.886719 644.164062 151.070312 644.070312 151.132812 C 643.296875 152.335938 644.351562 160.027344 652.5625 168.007812 L 703.371094 217.367188 C 709.210938 223.039062 715.441406 225.578125 719.011719 225.578125 C 719.964844 225.578125 720.441406 225.394531 720.535156 225.332031 C 721.296875 224.132812 720.234375 216.429688 712.023438 208.453125 L 661.21875 159.097656 C 655.378906 153.425781 649.160156 150.886719 645.582031 150.886719 Z M 645.582031 150.886719 " fill-opacity="1" fill-rule="nonzero"/><g clip-path="url(#6ca78abcde)"><path fill="#2a2cba" d="M 419.941406 749.074219 C 398.304688 749.074219 376.730469 746.652344 355.820312 741.882812 C 351.035156 740.789062 348.042969 736.027344 349.132812 731.238281 C 350.226562 726.460938 354.96875 723.441406 359.777344 724.554688 C 379.390625 729.03125 399.632812 731.300781 419.941406 731.300781 C 568.417969 731.300781 689.214844 610.511719 689.214844 462.035156 C 689.214844 313.566406 568.421875 192.777344 419.941406 192.777344 C 399.636719 192.777344 379.390625 195.046875 359.769531 199.523438 C 354.988281 200.617188 350.222656 197.621094 349.128906 192.835938 C 348.039062 188.050781 351.03125 183.285156 355.820312 182.195312 C 376.734375 177.421875 398.308594 175.003906 419.941406 175.003906 C 578.21875 175.003906 706.988281 303.769531 706.988281 462.035156 C 706.988281 620.3125 578.222656 749.074219 419.941406 749.074219 Z M 419.941406 749.074219 " fill-opacity="1" fill-rule="nonzero"/></g><path fill="#2a2cba" d="M 419.941406 470.921875 C 418.320312 470.921875 416.699219 470.476562 415.273438 469.597656 C 412.652344 467.976562 411.058594 465.113281 411.058594 462.035156 L 411.058594 336.59375 C 411.058594 331.683594 415.035156 327.707031 419.941406 327.707031 C 424.851562 327.707031 428.828125 331.683594 428.828125 336.59375 L 428.828125 447.65625 L 494.511719 414.820312 C 498.90625 412.625 504.238281 414.40625 506.433594 418.796875 C 508.628906 423.183594 506.847656 428.523438 502.460938 430.71875 L 423.914062 469.984375 C 422.664062 470.609375 421.300781 470.921875 419.941406 470.921875 Z M 419.941406 470.921875 " fill-opacity="1" fill-rule="nonzero"/><path fill="#ff1304" d="M 281.199219 289.601562 L 201.785156 289.601562 C 196.875 289.601562 192.898438 285.621094 192.898438 280.714844 C 192.898438 275.804688 196.875 271.828125 201.785156 271.828125 L 281.199219 271.828125 C 286.109375 271.828125 290.085938 275.804688 290.085938 280.714844 C 290.085938 285.621094 286.109375 289.601562 281.199219 289.601562 Z M 281.199219 289.601562 " fill-opacity="1" fill-rule="nonzero"/><path fill="#ff1304" d="M 301.398438 698.875 L 221.980469 698.875 C 217.074219 698.875 213.097656 694.898438 213.097656 689.988281 C 213.097656 685.082031 217.074219 681.105469 221.980469 681.105469 L 301.398438 681.105469 C 306.304688 681.105469 310.285156 685.082031 310.285156 689.988281 C 310.285156 694.898438 306.304688 698.875 301.398438 698.875 Z M 301.398438 698.875 " fill-opacity="1" fill-rule="nonzero"/><path fill="#ff1304" d="M 215.105469 496.121094 L 80.824219 496.121094 C 75.914062 496.121094 71.9375 492.144531 71.9375 487.234375 C 71.9375 482.324219 75.914062 478.347656 80.824219 478.347656 L 215.105469 478.347656 C 220.011719 478.347656 223.992188 482.324219 223.992188 487.234375 C 223.992188 492.144531 220.007812 496.121094 215.105469 496.121094 Z M 215.105469 496.121094 " fill-opacity="1" fill-rule="nonzero"/><path fill="#ff1304" d="M 225.023438 568.433594 L 90.742188 568.433594 C 85.835938 568.433594 81.855469 564.457031 81.855469 559.546875 C 81.855469 554.636719 85.835938 550.660156 90.742188 550.660156 L 225.023438 550.660156 C 229.933594 550.660156 233.910156 554.636719 233.910156 559.546875 C 233.910156 564.457031 229.929688 568.433594 225.023438 568.433594 Z M 225.023438 568.433594 " fill-opacity="1" fill-rule="nonzero"/><path fill="#ff1304" d="M 264.730469 639.960938 L 130.449219 639.960938 C 125.542969 639.960938 121.5625 635.984375 121.5625 631.074219 C 121.5625 626.164062 125.542969 622.1875 130.449219 622.1875 L 264.730469 622.1875 C 269.636719 622.1875 273.613281 626.164062 273.613281 631.074219 C 273.613281 635.984375 269.636719 639.960938 264.730469 639.960938 Z M 264.730469 639.960938 " fill-opacity="1" fill-rule="nonzero"/><path fill="#ff1304" d="M 241.492188 351.601562 L 115.097656 351.601562 C 110.191406 351.601562 106.210938 347.625 106.210938 342.714844 C 106.210938 337.804688 110.191406 333.828125 115.097656 333.828125 L 241.492188 333.828125 C 246.402344 333.828125 250.378906 337.804688 250.378906 342.714844 C 250.378906 347.625 246.402344 351.601562 241.492188 351.601562 Z M 241.492188 351.601562 " fill-opacity="1" fill-rule="nonzero"/><g clip-path="url(#a5684207be)"><path fill="#ff1304" d="M 219.414062 421.84375 L 76.507812 421.84375 C 71.597656 421.84375 67.621094 417.867188 67.621094 412.960938 C 67.621094 408.050781 71.597656 404.074219 76.507812 404.074219 L 219.414062 404.074219 C 224.320312 404.074219 228.296875 408.050781 228.296875 412.960938 C 228.296875 417.867188 224.320312 421.84375 219.414062 421.84375 Z M 219.414062 421.84375 " fill-opacity="1" fill-rule="nonzero"/></g></svg>